<svg version="1.1" id="Layer_1" xmlns="http://www.w3.org/2000/svg" xmlns:xlink="http://www.w3.org/1999/xlink" x="0px" y="0px"
	 width="100%" viewBox="0 0 142 128" enable-background="new 0 0 142 128" xml:space="preserve">
<path fill="#000000" opacity="1.000000" stroke="none" 
	d="
M100.000000,129.000000 
	C66.697090,129.000000 33.894184,129.000000 1.045639,129.000000 
	C1.045639,86.403336 1.045639,43.806614 1.045639,1.104946 
	C48.219299,1.104946 95.438911,1.104946 142.829254,1.104946 
	C142.829254,43.666100 142.829254,86.333000 142.829254,129.000000 
	C128.807037,129.000000 114.653519,129.000000 100.000000,129.000000 
M6.475932,120.081276 
	C6.349046,120.391602 6.222159,120.701927 6.628307,121.648087 
	C16.432512,121.767609 26.236431,121.938705 36.040997,121.992867 
	C46.937489,122.053062 57.834568,122.006653 68.731392,122.006653 
	C61.285908,118.651886 53.672863,116.221062 46.042583,113.845596 
	C40.717968,112.187935 35.369751,110.606094 30.024786,108.177567 
	C32.841560,95.287605 35.658333,82.397652 38.475105,69.507690 
	C37.917881,69.251167 37.360657,68.994637 36.803432,68.738113 
	C35.930504,69.747864 34.942276,70.680534 34.206043,71.781677 
	C31.902296,75.227249 29.538363,78.647293 27.477829,82.237953 
	C21.750607,92.218140 16.130911,102.260681 10.547352,112.322212 
	C9.178858,114.788231 8.111158,117.421173 6.968599,120.002617 
	C6.968599,120.002617 6.990808,119.938049 6.475932,120.081276 
M63.981953,44.635349 
	C63.698715,45.842098 63.467770,47.063999 63.123192,48.252972 
	C61.621246,53.435459 64.115257,58.030338 68.677986,60.243778 
	C73.868484,62.761757 79.694679,58.288811 81.464951,54.149303 
	C83.217537,50.051140 80.656380,44.686661 76.143227,42.352367 
	C71.603142,40.004143 67.965126,43.092136 63.845734,43.351425 
	C66.581856,40.517910 69.317978,37.684399 72.639130,35.187252 
	C80.854019,42.745235 89.043541,50.331238 97.319168,57.822121 
	C98.247253,58.662205 99.663063,58.963478 100.852692,59.514622 
	C100.696999,57.942257 100.965157,56.158020 100.305183,54.837734 
	C98.416618,51.059650 96.137329,47.477890 94.036873,43.804527 
	C87.317764,32.053875 80.633904,20.282976 73.877907,8.553603 
	C72.517075,6.191005 71.157188,6.400218 69.990852,9.646585 
	C67.858788,13.663063 65.880035,17.770720 63.558552,21.674559 
	C60.113312,27.468117 56.350800,33.072289 52.864300,38.842255 
	C50.072838,43.461971 47.358627,48.139843 44.878483,52.930824 
	C43.812527,54.989967 43.425552,57.400597 42.730106,59.651535 
	C46.483307,58.149677 49.245625,55.965111 51.986092,53.753468 
	C56.008205,50.507496 60.014687,47.242161 63.981953,44.635349 
M138.017487,120.234825 
	C127.889336,102.980316 117.761192,85.725807 107.633041,68.471298 
	C106.996971,68.764420 106.360909,69.057541 105.724846,69.350662 
	C108.397331,82.227539 111.069824,95.104408 113.007202,107.988335 
	C100.213730,112.470108 87.420250,116.951881 74.626778,121.433655 
	C95.654037,121.991211 116.569069,121.994286 137.483994,121.949921 
	C137.705444,121.949455 137.925598,121.326645 138.017487,120.234825 
M107.018936,107.581390 
	C107.879021,106.027565 108.995270,104.559425 109.549232,102.903214 
	C110.981018,98.622398 109.506332,95.121742 105.977951,92.530800 
	C102.062912,89.655930 96.733215,89.919632 93.221268,93.328499 
	C90.205399,96.255844 89.193321,99.748947 91.317902,103.793747 
	C94.669113,110.173813 98.865700,111.393265 107.018936,107.581390 
M50.582813,93.994843 
	C45.632042,89.858658 41.103142,89.229225 37.451508,92.169846 
	C35.221233,93.965874 33.915306,102.388824 35.466625,104.972000 
	C38.368065,109.803337 44.736824,111.385452 49.225437,108.389938 
	C54.357349,104.965134 55.029999,100.009285 50.582813,93.994843 
M73.714577,69.923874 
	C73.059532,70.460449 71.859657,70.977577 71.839691,71.536812 
	C71.727463,74.680916 71.657074,77.863998 72.028030,80.979530 
	C72.667976,86.354286 71.246422,90.049995 63.398132,90.514885 
	C65.376228,93.051949 66.288284,95.456123 67.770851,95.884125 
	C71.698212,97.017906 77.531715,93.185150 77.846519,89.194305 
	C78.275917,83.750648 78.077538,78.234116 77.738670,72.774261 
	C77.676025,71.764801 75.671829,70.875847 73.714577,69.923874 
z"/>
<path fill="#627985" opacity="1.000000" stroke="none" 
	d="
M70.170830,8.938612 
	C71.157188,6.400218 72.517075,6.191005 73.877907,8.553603 
	C80.633904,20.282976 87.317764,32.053875 94.036873,43.804527 
	C96.137329,47.477890 98.416618,51.059650 100.305183,54.837734 
	C100.965157,56.158020 100.696999,57.942257 100.852692,59.514622 
	C99.663063,58.963478 98.247253,58.662205 97.319168,57.822121 
	C89.043541,50.331238 80.854019,42.745235 72.318176,34.561104 
	C71.979752,27.167507 72.070511,20.396765 71.864494,13.635065 
	C71.816315,12.053847 70.762154,10.503281 70.170830,8.938612 
z"/>
<path fill="#B21D20" opacity="1.000000" stroke="none" 
	d="
M6.905169,119.977371 
	C8.111158,117.421173 9.178858,114.788231 10.547352,112.322212 
	C16.130911,102.260681 21.750607,92.218140 27.477829,82.237953 
	C29.538363,78.647293 31.902296,75.227249 34.206043,71.781677 
	C34.942276,70.680534 35.930504,69.747864 36.803432,68.738113 
	C37.360657,68.994637 37.917881,69.251167 38.475105,69.507690 
	C35.658333,82.397652 32.841560,95.287605 29.652100,108.600662 
	C27.051245,110.005180 24.780436,110.900970 22.603384,111.985046 
	C17.347332,114.602333 12.135082,117.307587 6.905169,119.977371 
z"/>
<path fill="#FFBC3B" opacity="1.000000" stroke="none" 
	d="
M113.742310,107.981285 
	C111.069824,95.104408 108.397331,82.227539 105.724846,69.350662 
	C106.360909,69.057541 106.996971,68.764420 107.633041,68.471298 
	C117.761192,85.725807 127.889336,102.980316 137.737579,120.517609 
	C129.552567,116.527351 121.647446,112.254318 113.742310,107.981285 
z"/>
<path fill="#3E5662" opacity="1.000000" stroke="none" 
	d="
M70.080841,9.292599 
	C70.762154,10.503281 71.816315,12.053847 71.864494,13.635065 
	C72.070511,20.396765 71.979752,27.167507 72.025665,34.392918 
	C69.317978,37.684399 66.581856,40.517910 63.921177,43.684990 
	C63.996620,44.018555 64.027832,43.985073 64.027832,43.985077 
	C60.014687,47.242161 56.008205,50.507496 51.986092,53.753468 
	C49.245625,55.965111 46.483307,58.149677 42.730106,59.651535 
	C43.425552,57.400597 43.812527,54.989967 44.878483,52.930824 
	C47.358627,48.139843 50.072838,43.461971 52.864300,38.842255 
	C56.350800,33.072289 60.113312,27.468117 63.558552,21.674559 
	C65.880035,17.770720 67.858788,13.663063 70.080841,9.292599 
z"/>
<path fill="#DE8127" opacity="1.000000" stroke="none" 
	d="
M113.374756,107.984810 
	C121.647446,112.254318 129.552567,116.527351 137.802032,120.897377 
	C137.925598,121.326645 137.705444,121.949455 137.483994,121.949921 
	C116.569069,121.994286 95.654037,121.991211 74.626778,121.433655 
	C87.420250,116.951881 100.213730,112.470108 113.374756,107.984810 
z"/>
<path fill="#720D0C" opacity="1.000000" stroke="none" 
	d="
M6.936884,119.989990 
	C12.135082,117.307587 17.347332,114.602333 22.603384,111.985046 
	C24.780436,110.900970 27.051245,110.005180 29.655743,109.007072 
	C35.369751,110.606094 40.717968,112.187935 46.042583,113.845596 
	C53.672863,116.221062 61.285908,118.651886 68.731392,122.006653 
	C57.834568,122.006653 46.937489,122.053062 36.040997,121.992867 
	C26.236431,121.938705 16.432512,121.767609 6.580951,121.217911 
	C6.795827,120.563599 6.948231,120.280373 6.990808,119.938049 
	C6.990808,119.938049 6.968599,120.002617 6.936884,119.989990 
z"/>
<path fill="#DE832C" opacity="1.000000" stroke="none" 
	d="
M106.685699,107.797638 
	C98.865700,111.393265 94.669113,110.173813 91.317902,103.793747 
	C89.193321,99.748947 90.205399,96.255844 93.221268,93.328499 
	C96.733215,89.919632 102.062912,89.655930 105.977951,92.530800 
	C109.506332,95.121742 110.981018,98.622398 109.549232,102.903214 
	C108.995270,104.559425 107.879021,106.027565 106.685699,107.797638 
z"/>
<path fill="#761413" opacity="1.000000" stroke="none" 
	d="
M50.845760,94.254700 
	C55.029999,100.009285 54.357349,104.965134 49.225437,108.389938 
	C44.736824,111.385452 38.368065,109.803337 35.466625,104.972000 
	C33.915306,102.388824 35.221233,93.965874 37.451508,92.169846 
	C41.103142,89.229225 45.632042,89.858658 50.845760,94.254700 
z"/>
<path fill="#3D5561" opacity="1.000000" stroke="none" 
	d="
M63.981804,44.036140 
	C67.965126,43.092136 71.603142,40.004143 76.143227,42.352367 
	C80.656380,44.686661 83.217537,50.051140 81.464951,54.149303 
	C79.694679,58.288811 73.868484,62.761757 68.677986,60.243778 
	C64.115257,58.030338 61.621246,53.435459 63.123192,48.252972 
	C63.467770,47.063999 63.698715,45.842098 64.004890,44.310211 
	C64.027832,43.985073 63.996620,44.018555 63.981804,44.036140 
z"/>
<path fill="#415864" opacity="1.000000" stroke="none" 
	d="
M74.139160,69.927567 
	C75.671829,70.875847 77.676025,71.764801 77.738670,72.774261 
	C78.077538,78.234116 78.275917,83.750648 77.846519,89.194305 
	C77.531715,93.185150 71.698212,97.017906 67.770851,95.884125 
	C66.288284,95.456123 65.376228,93.051949 63.398132,90.514885 
	C71.246422,90.049995 72.667976,86.354286 72.028030,80.979530 
	C71.657074,77.863998 71.727463,74.680916 71.839691,71.536812 
	C71.859657,70.977577 73.059532,70.460449 74.139160,69.927567 
z"/>
<path fill="#B21D20" opacity="1.000000" stroke="none" 
	d="
M6.733370,120.009659 
	C6.948231,120.280373 6.795827,120.563599 6.314434,120.899994 
	C6.222159,120.701927 6.349046,120.391602 6.733370,120.009659 
z"/>
</svg>